<svg width="780" height="400" viewBox="0 0 780 400" fill="none" xmlns="http://www.w3.org/2000/svg">
<g clip-path="url(#clip0_3006_689)">
<rect width="780" height="400" fill="#091E42"/>
<rect width="780" height="400" fill="url(#paint0_radial_3006_689)"/>
<rect width="780" height="400" fill="url(#paint1_radial_3006_689)"/>
<rect width="780" height="400" fill="url(#paint2_radial_3006_689)"/>
<path d="M172.061 86.9311C172.061 81.2726 176.648 76.6855 182.306 76.6855H615.35C621.008 76.6855 625.595 81.2726 625.595 86.9311V344.926C625.595 350.585 621.008 355.172 615.35 355.172H182.306C176.648 355.172 172.061 350.585 172.061 344.926V86.9311Z" fill="url(#paint3_linear_3006_689)"/>
<g filter="url(#filter0_bd_3006_689)">
<path d="M172.105 51.6106C172.105 46.1817 176.506 41.7808 181.935 41.7808H615.81C621.239 41.7808 625.64 46.1817 625.64 51.6106V77.5861H172.105V51.6106Z" fill="url(#paint4_linear_3006_689)"/>
</g>
<path d="M203.234 59.7123C203.234 62.3235 201.08 64.4778 198.469 64.4778C195.857 64.4778 193.703 62.3235 193.703 59.7123C193.703 57.101 195.857 54.9468 198.469 54.9468C201.08 54.9468 203.234 57.101 203.234 59.7123Z" fill="white"/>
<path d="M222.293 59.7123C222.293 62.3235 220.138 64.4778 217.527 64.4778C214.916 64.4778 212.762 62.3235 212.762 59.7123C212.762 57.101 214.916 54.9468 217.527 54.9468C220.204 54.9468 222.293 57.101 222.293 59.7123Z" fill="white"/>
<path d="M241.36 59.7123C241.36 62.3235 239.206 64.4778 236.595 64.4778C233.983 64.4778 231.829 62.3235 231.829 59.7123C231.829 57.101 233.983 54.9468 236.595 54.9468C239.206 54.9468 241.36 57.101 241.36 59.7123Z" fill="white"/>
<g filter="url(#filter1_bd_3006_689)">
<path d="M172.532 77.5156H626V137.922H172.532V77.5156Z" fill="url(#paint5_linear_3006_689)"/>
</g>
<g style="mix-blend-mode:overlay">
<path d="M172.532 76.814H626V137.22H172.532V76.814Z" fill="#A2C6FF" fill-opacity="0.6"/>
</g>
<g style="mix-blend-mode:overlay">
<rect x="203.871" y="93.1392" width="385.014" height="24.1319" rx="12.066" fill="#A2C6FF" fill-opacity="0.6"/>
<rect x="204.272" y="93.54" width="384.212" height="23.3302" rx="11.6651" stroke="white" stroke-opacity="0.2" stroke-width="0.801692" stroke-linecap="round"/>
</g>
<path d="M172.532 136.519L626 137.221" stroke="white" stroke-opacity="0.05" stroke-width="1.54312"/>
<rect x="388.946" y="175.407" width="218.121" height="146.015" rx="6.44166" fill="url(#paint6_linear_3006_689)"/>
<rect x="389.474" y="175.935" width="217.066" height="144.96" rx="5.91404" stroke="white" stroke-opacity="0.2" stroke-width="1.05524"/>
<path d="M467.939 256.019L446.262 240.862L415.596 279.635L414.538 300.608H585.493V260.601L537.203 252.846L502.516 225.881L467.939 256.019Z" fill="#FECE4D"/>
<path d="M470.936 268.355L450.668 259.719L414.538 289.504V300.607H585.493V269.765L545.838 241.39L504.95 245.62L470.936 268.355Z" fill="#C2BEFF"/>
<path d="M414.184 255.316V300.61H585.491V288.449L537.729 282.105L502.514 255.316L474.987 286.863L414.184 255.316Z" fill="#71E6FF"/>
<path d="M447.304 234.433C457.63 234.433 466.002 226.063 466.002 215.737C466.002 205.411 457.63 197.039 447.304 197.039C436.979 197.039 428.606 205.411 428.606 215.737C428.606 226.063 436.979 234.433 447.304 234.433Z" fill="#3D7FFC"/>
<path d="M503.184 218.211C510.523 218.211 516.472 212.26 516.472 204.921C516.472 197.582 510.523 191.631 503.184 191.631C495.845 191.631 489.895 197.582 489.895 204.921C489.895 212.26 495.845 218.211 503.184 218.211Z" fill="#76A5FF"/>
<path d="M446.632 231.29L446.632 299.791" stroke="#3D7FFC" stroke-width="1.47056" stroke-linecap="round" stroke-dasharray="3.48 3.48"/>
<path d="M502.513 218.672L502.513 299.791" stroke="#3D7FFC" stroke-width="1.47056" stroke-linecap="round" stroke-dasharray="3.48 3.48"/>
<path d="M545.778 218.672L545.778 299.791" stroke="#3D7FFC" stroke-width="1.47056" stroke-linecap="round" stroke-dasharray="3.48 3.48"/>
<path fill-rule="evenodd" clip-rule="evenodd" d="M449.026 202.97L446.18 202.947C446.086 202.945 445.997 202.982 445.928 203.048C445.862 203.115 445.823 203.204 445.823 203.301L445.805 205.256C445.317 205.325 444.853 205.43 444.414 205.569C443.504 205.856 442.715 206.257 442.059 206.771C441.417 207.264 440.892 207.894 440.522 208.617C440.16 209.332 439.977 210.119 439.97 210.972C439.963 211.767 440.085 212.471 440.339 213.084C440.6 213.712 441.006 214.269 441.52 214.714C442.057 215.189 442.742 215.601 443.575 215.95C444.409 216.298 445.402 216.61 446.56 216.881C447.576 217.094 448.431 217.298 449.124 217.498C449.814 217.695 450.378 217.908 450.8 218.147C451.222 218.383 451.529 218.647 451.72 218.945C451.91 219.243 452.002 219.601 451.997 220.02C451.999 220.41 451.896 220.793 451.697 221.128C451.486 221.465 451.197 221.749 450.855 221.956C450.491 222.18 450.053 222.35 449.544 222.469C448.993 222.598 448.427 222.657 447.86 222.646C447.239 222.644 446.622 222.552 446.026 222.377C445.471 222.219 444.955 221.956 444.503 221.598C444.049 221.238 443.678 220.784 443.412 220.268C443.123 219.736 442.955 219.108 442.898 218.388L439.225 218.355C439.248 219.477 439.447 220.513 439.819 221.456C440.176 222.382 440.738 223.217 441.46 223.9C442.185 224.581 443.084 225.12 444.166 225.508C444.619 225.67 445.105 225.8 445.623 225.896L445.605 227.919C445.605 228.016 445.641 228.105 445.708 228.172C445.774 228.24 445.864 228.279 445.958 228.279L448.804 228.305C448.9 228.305 448.989 228.268 449.058 228.201C449.125 228.135 449.164 228.045 449.164 227.951L449.18 226.055C449.838 225.989 450.464 225.861 451.055 225.67C452.002 225.363 452.818 224.937 453.508 224.384C454.183 223.847 454.733 223.169 455.123 222.398C455.513 221.628 455.712 220.775 455.719 219.837C455.726 219.043 455.613 218.349 455.382 217.752C455.166 217.179 454.843 216.652 454.428 216.2C454.017 215.755 453.54 215.372 453.015 215.069C452.467 214.753 451.892 214.487 451.298 214.271C450.686 214.051 450.062 213.863 449.431 213.707C448.794 213.547 448.175 213.405 447.569 213.276C446.877 213.125 446.28 212.971 445.794 212.818C445.308 212.664 444.907 212.49 444.6 212.306C444.285 212.12 444.058 211.916 443.921 211.696C443.776 211.467 443.703 211.199 443.712 210.928C443.719 210.206 444.049 209.632 444.705 209.229C445.361 208.823 446.301 208.621 447.528 208.633C450.053 208.653 451.435 209.82 451.681 212.134L455.315 212.166C455.297 211.079 455.095 210.1 454.708 209.238C454.334 208.396 453.781 207.647 453.089 207.041C452.401 206.44 451.578 205.982 450.624 205.654C450.221 205.517 449.8 205.408 449.361 205.327L449.379 203.33C449.379 203.236 449.342 203.145 449.276 203.078C449.209 203.012 449.12 202.973 449.026 202.97Z" fill="white"/>
<path fill-rule="evenodd" clip-rule="evenodd" d="M504.406 195.524L502.385 195.506C502.318 195.505 502.253 195.532 502.206 195.578C502.158 195.625 502.131 195.691 502.129 195.757L502.117 197.146C501.771 197.196 501.442 197.27 501.13 197.369C500.483 197.574 499.922 197.858 499.456 198.223C498.998 198.573 498.626 199.021 498.364 199.535C498.106 200.043 497.976 200.602 497.969 201.209C497.965 201.774 498.051 202.275 498.232 202.71C498.419 203.156 498.706 203.552 499.071 203.869C499.454 204.206 499.942 204.499 500.533 204.747C501.125 204.996 501.832 205.217 502.655 205.409C503.376 205.56 503.985 205.705 504.476 205.847C504.968 205.987 505.369 206.141 505.669 206.309C505.969 206.476 506.187 206.664 506.322 206.876C506.456 207.088 506.521 207.342 506.52 207.64C506.521 207.917 506.446 208.189 506.304 208.427C506.155 208.667 505.949 208.869 505.706 209.016C505.449 209.175 505.138 209.296 504.776 209.381C504.383 209.472 503.982 209.514 503.578 209.506C503.138 209.505 502.698 209.441 502.274 209.317C501.881 209.203 501.514 209.016 501.193 208.761C500.871 208.506 500.607 208.183 500.416 207.818C500.212 207.438 500.093 206.993 500.052 206.48L497.441 206.457C497.456 207.255 497.6 207.991 497.862 208.66C498.118 209.319 498.517 209.914 499.031 210.398C499.546 210.882 500.184 211.265 500.954 211.54C501.276 211.656 501.62 211.748 501.988 211.816L501.976 213.255C501.976 213.324 502.002 213.387 502.049 213.436C502.096 213.484 502.16 213.511 502.227 213.511L504.249 213.529C504.316 213.529 504.381 213.503 504.429 213.456C504.478 213.41 504.504 213.345 504.505 213.278L504.517 211.93C504.985 211.883 505.43 211.792 505.85 211.656C506.521 211.438 507.103 211.134 507.592 210.743C508.073 210.36 508.464 209.878 508.739 209.33C509.017 208.783 509.158 208.176 509.165 207.511C509.17 206.946 509.09 206.452 508.925 206.028C508.77 205.621 508.541 205.247 508.247 204.926C507.954 204.609 507.616 204.338 507.242 204.121C506.854 203.896 506.445 203.707 506.021 203.554C505.587 203.398 505.144 203.264 504.696 203.153C504.243 203.039 503.803 202.938 503.372 202.847C502.88 202.739 502.456 202.63 502.111 202.521C501.764 202.412 501.48 202.288 501.26 202.157C501.038 202.025 500.877 201.88 500.778 201.724C500.677 201.561 500.624 201.37 500.631 201.178C500.634 200.664 500.869 200.257 501.335 199.97C501.801 199.682 502.471 199.538 503.343 199.546C505.136 199.561 506.12 200.392 506.293 202.035L508.878 202.058C508.865 201.285 508.722 200.589 508.444 199.977C508.18 199.378 507.788 198.845 507.294 198.415C506.805 197.988 506.221 197.662 505.543 197.429C505.257 197.332 504.957 197.255 504.645 197.197L504.657 195.779C504.659 195.712 504.631 195.648 504.585 195.599C504.538 195.552 504.474 195.524 504.406 195.524Z" fill="white"/>
<path d="M546.446 229.026C551.794 229.026 556.129 224.69 556.129 219.342C556.129 213.993 551.794 209.657 546.446 209.657C541.098 209.657 536.762 213.993 536.762 219.342C536.762 224.69 541.098 229.026 546.446 229.026Z" fill="#9FC0FF"/>
<path fill-rule="evenodd" clip-rule="evenodd" d="M547.354 212.493L545.882 212.48C545.833 212.478 545.785 212.499 545.751 212.532C545.717 212.566 545.696 212.614 545.695 212.662L545.687 213.672C545.432 213.708 545.19 213.762 544.96 213.835C544.489 213.985 544.08 214.191 543.74 214.457C543.407 214.713 543.136 215.039 542.945 215.414C542.757 215.784 542.662 216.191 542.657 216.633C542.654 217.045 542.717 217.41 542.848 217.727C542.985 218.053 543.194 218.341 543.46 218.572C543.739 218.817 544.094 219.031 544.526 219.212C544.957 219.393 545.472 219.554 546.072 219.694C546.597 219.804 547.041 219.91 547.399 220.013C547.757 220.116 548.049 220.227 548.268 220.35C548.486 220.472 548.646 220.608 548.744 220.763C548.842 220.917 548.889 221.103 548.888 221.32C548.889 221.522 548.834 221.72 548.731 221.894C548.622 222.068 548.472 222.215 548.295 222.322C548.108 222.439 547.881 222.527 547.617 222.588C547.331 222.655 547.039 222.686 546.744 222.68C546.423 222.679 546.103 222.632 545.794 222.542C545.508 222.459 545.24 222.322 545.007 222.137C544.771 221.951 544.579 221.715 544.44 221.449C544.292 221.173 544.205 220.848 544.175 220.474L542.272 220.458C542.283 221.04 542.388 221.575 542.579 222.063C542.765 222.543 543.056 222.977 543.43 223.329C543.806 223.682 544.271 223.961 544.832 224.162C545.068 224.247 545.322 224.314 545.592 224.364L545.584 225.413C545.584 225.463 545.603 225.51 545.637 225.545C545.671 225.58 545.718 225.6 545.766 225.6L547.24 225.613C547.289 225.613 547.337 225.594 547.371 225.56C547.407 225.526 547.426 225.479 547.427 225.43L547.435 224.446C547.774 224.411 548.096 224.345 548.4 224.246C548.889 224.087 549.313 223.866 549.669 223.581C550.02 223.302 550.305 222.951 550.506 222.552C550.707 222.152 550.811 221.711 550.816 221.226C550.819 220.814 550.761 220.454 550.641 220.145C550.528 219.848 550.361 219.576 550.147 219.342C549.933 219.111 549.687 218.914 549.414 218.756C549.131 218.592 548.833 218.454 548.524 218.342C548.209 218.228 547.885 218.131 547.559 218.05C547.229 217.967 546.908 217.893 546.594 217.827C546.236 217.749 545.927 217.669 545.675 217.589C545.422 217.51 545.216 217.42 545.055 217.325C544.894 217.228 544.776 217.123 544.704 217.009C544.63 216.89 544.592 216.751 544.597 216.611C544.599 216.237 544.77 215.94 545.11 215.731C545.45 215.52 545.938 215.416 546.573 215.422C547.88 215.433 548.597 216.038 548.723 217.235L550.606 217.252C550.597 216.689 550.492 216.182 550.291 215.735C550.098 215.3 549.812 214.911 549.452 214.598C549.096 214.286 548.671 214.049 548.176 213.879C547.97 213.809 547.754 213.753 547.529 213.711L547.537 212.678C547.538 212.629 547.518 212.583 547.485 212.547C547.451 212.513 547.404 212.493 547.354 212.493Z" fill="white"/>
<g filter="url(#filter2_d_3006_689)">
<rect x="153.111" y="161.147" width="219.381" height="132.147" rx="6.44166" fill="url(#paint7_linear_3006_689)"/>
<rect x="153.639" y="161.675" width="218.326" height="131.092" rx="5.91404" stroke="white" stroke-opacity="0.2" stroke-width="1.05524"/>
<rect x="284.886" y="185.808" width="66.3489" height="18.4303" rx="2" fill="url(#paint8_linear_3006_689)"/>
<rect x="285.413" y="186.335" width="65.2937" height="17.375" rx="1.47238" stroke="white" stroke-opacity="0.2" stroke-width="1.05524"/>
<rect x="284.886" y="208.846" width="66.3489" height="18.4303" rx="2" fill="url(#paint9_linear_3006_689)"/>
<rect x="285.413" y="209.373" width="65.2937" height="17.375" rx="1.47238" stroke="white" stroke-opacity="0.2" stroke-width="1.05524"/>
<rect x="284.886" y="230.961" width="66.3489" height="18.4303" rx="2" fill="url(#paint10_linear_3006_689)"/>
<rect x="285.413" y="231.489" width="65.2937" height="17.375" rx="1.47238" stroke="white" stroke-opacity="0.2" stroke-width="1.05524"/>
<rect x="284.886" y="254" width="66.3489" height="18.4303" rx="2" fill="url(#paint11_linear_3006_689)"/>
<rect x="285.413" y="254.528" width="65.2937" height="17.375" rx="1.47238" stroke="white" stroke-opacity="0.2" stroke-width="1.05524"/>
<rect x="291.011" y="191.162" width="8.41673" height="7.65157" rx="2.02887" fill="#9FC0FF"/>
<rect opacity="0.7" x="301.708" y="190.852" width="18.5018" height="2.52298" rx="1.26149" fill="#D2DCE4" fill-opacity="0.6"/>
<rect opacity="0.7" x="301.708" y="195.898" width="41.2086" height="2.52298" rx="1.26149" fill="#D2DCE4" fill-opacity="0.6"/>
<rect x="291.011" y="213.873" width="8.41673" height="7.65157" rx="2.02887" fill="#C6DCFF"/>
<rect opacity="0.7" x="301.708" y="213.562" width="18.5018" height="2.52298" rx="1.26149" fill="#D2DCE4" fill-opacity="0.6"/>
<rect opacity="0.7" x="301.708" y="218.608" width="41.2086" height="2.52298" rx="1.26149" fill="#D2DCE4" fill-opacity="0.6"/>
<rect x="291.011" y="236.576" width="8.41673" height="7.65157" rx="2.02887" fill="#5D5FEF"/>
<rect opacity="0.7" x="301.708" y="236.265" width="18.5018" height="2.52298" rx="1.26149" fill="#D2DCE4" fill-opacity="0.6"/>
<rect opacity="0.7" x="301.708" y="241.311" width="41.2086" height="2.52298" rx="1.26149" fill="#D2DCE4" fill-opacity="0.6"/>
<rect x="291.011" y="259.286" width="8.41673" height="7.65157" rx="2.02887" fill="#FECE4D"/>
<rect opacity="0.7" x="301.708" y="258.976" width="18.5018" height="2.52298" rx="1.26149" fill="#D2DCE4" fill-opacity="0.6"/>
<rect opacity="0.7" x="301.708" y="264.022" width="41.2086" height="2.52298" rx="1.26149" fill="#D2DCE4" fill-opacity="0.6"/>
<g style="mix-blend-mode:overlay">
<rect x="167.804" y="175.843" width="103.917" height="103.917" rx="3" fill="#A2C6FF" fill-opacity="0.6"/>
</g>
<g clip-path="url(#clip1_3006_689)">
<path d="M253.051 206.058C249.346 200.625 244.355 196.189 238.523 193.144C238.708 195.472 238.341 197.811 237.451 199.97C236.561 202.13 235.174 204.049 233.402 205.572C237.962 208.226 241.631 212.17 243.948 216.906C246.265 221.641 247.126 226.957 246.421 232.18C247.163 231.842 247.946 231.602 248.75 231.464L250.325 231.388C250.939 230.505 251.541 229.597 252.104 228.677C252.465 227.875 252.893 227.105 253.384 226.375C253.538 226.056 253.691 225.749 253.832 225.442C255.035 222.885 257.378 224.803 259.567 223.767C258.53 214.702 256.034 210.405 253.051 206.058Z" fill="#5D5FEF"/>
<path d="M215.007 263.466H215.353C215.186 262.648 215.007 261.843 214.777 261.024C214.687 260.679 214.572 260.334 214.482 259.989V259.899L213.561 256.984C213.305 256.157 213.209 255.289 213.279 254.427C208.225 253.103 203.674 250.318 200.197 246.422C197.891 248.839 195.284 250.949 192.44 252.7C191.468 253.336 190.418 253.843 189.316 254.209C194.168 260.065 202.68 264.745 209.503 266.995C211.461 265.065 212.114 263.466 215.007 263.466Z" fill="#C6DBFF"/>
<path d="M201.555 247.855C200.241 246.595 199.061 245.202 198.035 243.699C194.451 238.472 192.849 232.141 193.516 225.841C194.183 219.541 197.076 213.685 201.674 209.322C206.273 204.96 212.277 202.376 218.61 202.036C224.943 201.695 231.19 203.619 236.231 207.463L242.132 195.303C228.052 186.174 212.973 186.353 197.42 195.662C188.667 201.655 182.655 210.876 180.705 221.296C178.756 231.717 181.03 242.484 187.026 251.23C188.049 252.725 189.174 254.148 190.393 255.488L201.555 247.855Z" fill="#9FC0FF"/>
<path d="M209.819 266.772L213.109 254.573C217.43 255.7 221.965 255.74 226.309 254.687C230.762 253.607 234.867 251.413 238.238 248.312C241.609 245.21 244.134 241.303 245.577 236.958C246.976 232.744 247.312 228.252 246.557 223.881L259.365 224.087C260.815 237.982 256.065 249.51 245.383 258.529C241.515 261.794 237.094 264.342 232.329 266.051C225.155 268.615 218.964 268.874 209.819 266.772Z" fill="#FECE4D" stroke="#FECE4D" stroke-width="0.676291"/>
<circle cx="216.653" cy="225.201" r="20.6269" fill="#E7EEFF" fill-opacity="0.2"/>
</g>
</g>
<path d="M314.05 314H254.95C251.664 314 249 316.664 249 319.95V379.05C249 382.336 251.664 385 254.95 385H314.05C317.336 385 320 382.336 320 379.05V319.95C320 316.664 317.336 314 314.05 314Z" fill="url(#paint12_linear_3006_689)"/>
<path d="M254.95 314.528H314.05C317.045 314.528 319.472 316.955 319.472 319.95V379.05C319.472 382.045 317.045 384.472 314.05 384.472H254.95C251.955 384.472 249.528 382.045 249.528 379.05V319.95C249.528 316.955 251.955 314.528 254.95 314.528Z" stroke="white" stroke-opacity="0.2" stroke-width="1.05524"/>
<g clip-path="url(#clip2_3006_689)">
<g style="mix-blend-mode:overlay">
<circle cx="284.267" cy="349.832" r="23.1747" fill="#A2C6FF" fill-opacity="0.6"/>
</g>
<path fill-rule="evenodd" clip-rule="evenodd" d="M302.042 336.953C302.042 336.953 309.516 336.953 309.767 336.953C310.017 336.953 310.625 336.953 310.625 336.953C310.625 336.953 310.625 337.587 310.625 337.811C310.625 338.035 310.625 341.673 310.625 341.673V345.536H308.908V339.883L288.738 360.054L276.721 348.037L260.591 364.168L259.377 362.954L276.721 345.609L288.738 357.626L307.694 338.669H302.042V336.953Z" fill="#3D7FFC"/>
<path fill-rule="evenodd" clip-rule="evenodd" d="M302.041 335.666H311.912L311.912 346.824H307.62V342.992L288.737 361.875L276.721 349.858L260.59 365.989L257.556 362.954L276.721 343.789L288.737 355.806L304.586 339.957H300.754V335.666H302.041Z" fill="#15C1E6"/>
</g>
<g opacity="0.8" clip-path="url(#clip3_3006_689)">
<g clip-path="url(#clip4_3006_689)">
<g filter="url(#filter3_bd_3006_689)">
<rect x="690.782" y="184.006" width="94.5223" height="60.3893" rx="2.26554" fill="url(#paint13_linear_3006_689)"/>
<rect x="690.924" y="184.148" width="94.2391" height="60.1061" rx="2.12395" stroke="url(#paint14_linear_3006_689)" stroke-opacity="0.2" stroke-width="0.283193"/>
</g>
<g style="mix-blend-mode:overlay">
<rect x="690.782" y="195.822" width="94.5223" height="48.574" fill="#A2C6FF" fill-opacity="0.6"/>
</g>
<path opacity="0.3" d="M696.033 202.565C696.033 201.741 696.701 201.073 697.526 201.073H733.925C734.749 201.073 735.418 201.741 735.418 202.565V244.395H696.033V202.565Z" fill="#022455"/>
<path opacity="0.3" d="M739.397 202.565C739.397 201.741 740.066 201.073 740.89 201.073H778.602C779.426 201.073 780.095 201.741 780.095 202.565V219.272C780.095 220.097 779.426 220.765 778.602 220.765H740.89C740.066 220.765 739.397 220.097 739.397 219.272V202.565Z" fill="#022455"/>
<path opacity="0.3" d="M739.397 226.237C739.397 225.413 740.066 224.745 740.89 224.745H778.602C779.426 224.745 780.095 225.413 780.095 226.237V244.437H739.397V226.237Z" fill="#022455"/>
<g style="mix-blend-mode:overlay">
<path fill-rule="evenodd" clip-rule="evenodd" d="M707.848 189.914C707.848 188.826 708.829 187.945 710.039 187.945H777.86C779.071 187.945 780.052 188.826 780.052 189.914C780.052 191.002 779.071 191.883 777.86 191.883L710.039 191.883C708.829 191.883 707.848 191.002 707.848 189.914Z" fill="#A2C6FF" fill-opacity="0.6"/>
</g>
<path d="M696.033 188.601C696.033 188.961 695.736 189.258 695.376 189.258C695.016 189.258 694.72 188.961 694.72 188.601C694.72 188.242 695.016 187.945 695.376 187.945C695.736 187.945 696.033 188.242 696.033 188.601Z" fill="white"/>
<path d="M699.044 188.601C699.044 188.961 698.748 189.258 698.388 189.258C698.028 189.258 697.731 188.961 697.731 188.601C697.731 188.242 698.028 187.945 698.388 187.945C698.757 187.945 699.044 188.242 699.044 188.601Z" fill="white"/>
<path d="M702.057 188.601C702.057 188.961 701.76 189.258 701.401 189.258C701.041 189.258 700.744 188.961 700.744 188.601C700.744 188.242 701.041 187.945 701.401 187.945C701.76 187.945 702.057 188.242 702.057 188.601Z" fill="white"/>
</g>
</g>
<g opacity="0.5" clip-path="url(#clip5_3006_689)">
<g clip-path="url(#clip6_3006_689)">
<g filter="url(#filter4_bd_3006_689)">
<rect x="648.909" y="65" width="94.5223" height="60.3893" rx="2.26554" fill="url(#paint15_linear_3006_689)"/>
<rect x="649.051" y="65.1416" width="94.2391" height="60.1061" rx="2.12395" stroke="url(#paint16_linear_3006_689)" stroke-opacity="0.2" stroke-width="0.283193"/>
</g>
<g style="mix-blend-mode:overlay">
<rect x="648.909" y="76.8154" width="94.5223" height="48.574" fill="#A2C6FF" fill-opacity="0.6"/>
</g>
<path opacity="0.3" d="M654.16 83.5589C654.16 82.7346 654.828 82.0664 655.653 82.0664H692.052C692.876 82.0664 693.544 82.7346 693.544 83.5589V125.389H654.16V83.5589Z" fill="#022455"/>
<path opacity="0.3" d="M697.524 83.5589C697.524 82.7346 698.193 82.0664 699.017 82.0664H736.729C737.553 82.0664 738.222 82.7346 738.222 83.5589V100.266C738.222 101.09 737.553 101.759 736.729 101.759H699.017C698.193 101.759 697.524 101.09 697.524 100.266V83.5589Z" fill="#022455"/>
<path opacity="0.3" d="M697.524 107.231C697.524 106.406 698.193 105.738 699.017 105.738H736.729C737.553 105.738 738.222 106.406 738.222 107.231V125.43H697.524V107.231Z" fill="#022455"/>
<g style="mix-blend-mode:overlay">
<path fill-rule="evenodd" clip-rule="evenodd" d="M665.975 70.9077C665.975 69.8201 666.956 68.9385 668.166 68.9385H735.987C737.198 68.9385 738.179 69.8201 738.179 70.9077C738.179 71.9953 737.198 72.8769 735.987 72.8769L668.166 72.8769C666.956 72.8769 665.975 71.9953 665.975 70.9077Z" fill="#A2C6FF" fill-opacity="0.6"/>
</g>
<path d="M654.16 69.5949C654.16 69.9546 653.864 70.2513 653.504 70.2513C653.144 70.2513 652.848 69.9546 652.848 69.5949C652.848 69.2352 653.144 68.9385 653.504 68.9385C653.864 68.9385 654.16 69.2352 654.16 69.5949Z" fill="white"/>
<path d="M657.172 69.5949C657.172 69.9546 656.875 70.2513 656.516 70.2513C656.156 70.2513 655.859 69.9546 655.859 69.5949C655.859 69.2352 656.156 68.9385 656.516 68.9385C656.884 68.9385 657.172 69.2352 657.172 69.5949Z" fill="white"/>
<path d="M660.185 69.5949C660.185 69.9546 659.888 70.2513 659.528 70.2513C659.169 70.2513 658.872 69.9546 658.872 69.5949C658.872 69.2352 659.169 68.9385 659.528 68.9385C659.888 68.9385 660.185 69.2352 660.185 69.5949Z" fill="white"/>
</g>
</g>
<g opacity="0.6" clip-path="url(#clip7_3006_689)">
<path opacity="0.4" d="M386.109 275.034C310.402 273.593 250.224 210.107 251.697 133.234C253.17 56.362 315.737 -4.7874 391.445 -3.34642C467.152 -1.90545 527.33 61.5802 525.857 138.453C524.384 215.325 461.817 276.475 386.109 275.034Z" fill="url(#paint17_linear_3006_689)"/>
<ellipse opacity="0.7" cx="117.573" cy="116.011" rx="117.573" ry="116.011" transform="matrix(-0.0606102 0.998161 -0.998189 -0.0601584 509.775 25)" fill="url(#paint18_linear_3006_689)"/>
<ellipse cx="93.5908" cy="93.7463" rx="93.5908" ry="93.7463" transform="matrix(-0.0605908 0.998163 -0.998188 -0.0601776 486.339 47.2275)" fill="url(#paint19_linear_3006_689)"/>
</g>
<circle cx="388.151" cy="136.016" r="56.7674" fill="#0A3066" stroke="url(#paint20_linear_3006_689)" stroke-width="3.03195"/>
<rect x="343" y="91" width="90" height="90" rx="45" fill="white"/>
<g clip-path="url(#clip8_3006_689)">
<path d="M379.782 110.577C380.251 109.349 380.896 108.218 381.853 107.301C385.683 103.576 392.013 104.512 394.611 109.193C396.565 112.742 398.636 116.213 400.648 119.723C404.009 125.554 407.408 131.385 410.73 137.236C413.524 142.13 410.495 148.312 404.947 149.151C401.547 149.658 398.363 148.098 396.604 145.056C393.654 139.927 390.684 134.798 387.734 129.689C387.676 129.572 387.597 129.474 387.519 129.377C387.207 129.123 387.07 128.752 386.874 128.421C385.565 126.12 384.217 123.838 382.908 121.557C382.068 120.074 381.189 118.612 380.349 117.13C379.587 115.804 379.235 114.361 379.274 112.839C379.333 112.059 379.431 111.279 379.782 110.577Z" fill="#3C8BD9"/>
<path d="M379.783 110.577C379.607 111.279 379.451 111.981 379.412 112.722C379.353 114.36 379.763 115.881 380.584 117.305C382.733 120.991 384.882 124.696 387.012 128.401C387.207 128.733 387.364 129.064 387.559 129.376C386.387 131.405 385.214 133.413 384.023 135.441C382.381 138.269 380.74 141.116 379.08 143.944C379.001 143.944 378.982 143.905 378.962 143.846C378.943 143.69 379.001 143.554 379.041 143.398C379.842 140.473 379.177 137.879 377.165 135.656C375.934 134.31 374.371 133.55 372.574 133.296C370.229 132.965 368.158 133.569 366.302 135.032C365.97 135.285 365.755 135.656 365.364 135.851C365.286 135.851 365.247 135.812 365.228 135.753C366.165 134.135 367.084 132.516 368.021 130.897C371.89 124.189 375.758 117.481 379.646 110.792C379.685 110.714 379.744 110.655 379.783 110.577Z" fill="#FABC04"/>
<path d="M365.306 135.812C365.677 135.48 366.029 135.129 366.42 134.817C371.167 131.073 378.298 133.784 379.334 139.712C379.588 141.136 379.451 142.501 379.021 143.866C379.002 143.983 378.982 144.08 378.943 144.197C378.767 144.509 378.611 144.841 378.416 145.153C376.677 148.02 374.117 149.443 370.757 149.229C366.908 148.956 363.88 146.069 363.352 142.247C363.098 140.395 363.469 138.659 364.427 137.06C364.622 136.709 364.857 136.397 365.071 136.046C365.169 135.968 365.13 135.812 365.306 135.812Z" fill="#34A852"/>
<path d="M365.306 135.812C365.228 135.89 365.228 136.026 365.091 136.046C365.071 135.909 365.15 135.831 365.228 135.734L365.306 135.812Z" fill="#FABC04"/>
<path d="M378.943 144.198C378.864 144.061 378.943 143.964 379.021 143.866C379.04 143.886 379.079 143.925 379.099 143.944L378.943 144.198Z" fill="#E1C025"/>
<path d="M367.044 155.781C364.837 155.781 363 157.556 363 159.74C363 161.924 364.837 163.679 367.044 163.679C368.236 163.679 369.115 163.289 369.819 162.568C370.541 161.846 370.756 160.852 370.756 160.052C370.756 159.799 370.737 159.564 370.698 159.369H367.044V160.442H369.643C369.565 161.047 369.369 161.495 369.057 161.807C368.685 162.178 368.08 162.607 367.044 162.607C365.442 162.607 364.192 161.32 364.192 159.74C364.192 158.16 365.442 156.873 367.044 156.873C367.904 156.873 368.549 157.205 368.998 157.653L369.76 156.893C369.115 156.269 368.256 155.781 367.044 155.781ZM373.667 158.609C372.28 158.609 371.128 159.682 371.128 161.183C371.128 162.665 372.261 163.757 373.667 163.757C375.074 163.757 376.207 162.665 376.207 161.183C376.207 159.701 375.055 158.609 373.667 158.609ZM373.667 162.743C372.906 162.743 372.241 162.1 372.241 161.183C372.241 160.267 372.906 159.623 373.667 159.623C374.429 159.623 375.094 160.247 375.094 161.183C375.094 162.1 374.429 162.743 373.667 162.743ZM379.177 158.609C377.77 158.609 376.637 159.682 376.637 161.183C376.637 162.665 377.77 163.757 379.177 163.757C380.564 163.757 381.717 162.665 381.717 161.183C381.717 159.701 380.584 158.609 379.177 158.609ZM379.177 162.743C378.415 162.743 377.751 162.1 377.751 161.183C377.751 160.267 378.415 159.623 379.177 159.623C379.939 159.623 380.603 160.247 380.603 161.183C380.603 162.1 379.959 162.743 379.177 162.743ZM384.667 158.609C383.397 158.609 382.244 159.721 382.244 161.164C382.244 162.587 383.397 163.699 384.667 163.699C385.273 163.699 385.742 163.426 385.996 163.114H386.035V163.484C386.035 164.459 385.527 164.986 384.687 164.986C384.003 164.986 383.593 164.498 383.417 164.089L382.44 164.498C382.713 165.181 383.456 166 384.687 166C385.996 166 387.09 165.22 387.09 163.348V158.784H386.035V159.194H385.996C385.742 158.882 385.273 158.609 384.667 158.609ZM384.765 162.704C384.003 162.704 383.358 162.061 383.358 161.164C383.358 160.267 384.003 159.604 384.765 159.604C385.527 159.604 386.113 160.267 386.113 161.164C386.113 162.061 385.527 162.704 384.765 162.704ZM387.91 156.093H389.024V163.621H387.91V156.093ZM392.013 158.609C390.685 158.609 389.571 159.643 389.571 161.183C389.571 162.626 390.665 163.757 392.13 163.757C393.322 163.757 394.006 163.036 394.28 162.626L393.4 162.041C393.107 162.47 392.697 162.743 392.13 162.743C391.544 162.743 391.134 162.49 390.88 161.963L394.338 160.54L394.221 160.247C394.006 159.682 393.342 158.609 392.013 158.609ZM390.685 161.105C390.646 160.111 391.466 159.604 392.033 159.604C392.482 159.604 392.873 159.818 392.99 160.15L390.685 161.105Z" fill="#757575"/>
<path d="M396.292 163.504L398.871 156.659H399.867L402.446 163.504H401.469L400.805 161.651H397.933L397.269 163.504H396.292ZM398.226 160.832H400.512L399.398 157.751H399.359L398.226 160.832Z" fill="#757575"/>
<path d="M403.345 162.938C402.915 162.451 402.7 161.866 402.7 161.163C402.7 160.481 402.915 159.896 403.345 159.389C403.794 158.901 404.302 158.667 404.927 158.667C405.279 158.667 405.592 158.745 405.865 158.882C406.158 159.038 406.373 159.213 406.53 159.467H406.569L406.53 158.823V156.659H407.409V163.504H406.569V162.86H406.53C406.373 163.094 406.158 163.289 405.865 163.445C405.572 163.601 405.26 163.66 404.927 163.66C404.302 163.66 403.775 163.426 403.345 162.938ZM406.119 162.392C406.412 162.08 406.549 161.671 406.549 161.163C406.549 160.676 406.412 160.266 406.119 159.954C405.846 159.642 405.494 159.486 405.064 159.486C404.634 159.486 404.283 159.642 404.009 159.954C403.716 160.266 403.579 160.676 403.579 161.163C403.579 161.651 403.716 162.061 404.009 162.373C404.302 162.685 404.654 162.841 405.064 162.841C405.494 162.86 405.846 162.704 406.119 162.392Z" fill="#757575"/>
<path d="M411.473 163.231C411.121 163.504 410.672 163.66 410.125 163.66C409.656 163.66 409.245 163.543 408.874 163.289C408.523 163.036 408.269 162.724 408.112 162.314L408.894 161.983C409.011 162.256 409.167 162.49 409.402 162.646C409.617 162.802 409.871 162.88 410.125 162.88C410.398 162.88 410.633 162.821 410.828 162.704C411.023 162.587 411.102 162.431 411.102 162.275C411.102 161.983 410.867 161.749 410.418 161.612L409.617 161.417C408.698 161.183 408.249 160.754 408.249 160.091C408.249 159.662 408.425 159.331 408.777 159.058C409.128 158.804 409.578 158.667 410.105 158.667C410.515 158.667 410.887 158.765 411.238 158.96C411.57 159.155 411.805 159.428 411.942 159.76L411.16 160.091C411.062 159.896 410.926 159.74 410.73 159.623C410.535 159.506 410.301 159.448 410.047 159.448C409.812 159.448 409.617 159.506 409.421 159.623C409.245 159.74 409.148 159.877 409.148 160.052C409.148 160.325 409.402 160.52 409.91 160.618L410.613 160.793C411.551 161.027 412 161.495 412 162.197C412.02 162.607 411.824 162.958 411.473 163.231Z" fill="#757575"/>
</g>
<g opacity="0.8" clip-path="url(#clip9_3006_689)">
<g clip-path="url(#clip10_3006_689)">
<g filter="url(#filter5_bd_3006_689)">
<rect x="-4.52344" y="202.739" width="94.5223" height="60.3893" rx="2.26554" fill="url(#paint21_linear_3006_689)"/>
<rect x="-4.38184" y="202.88" width="94.2391" height="60.1061" rx="2.12395" stroke="url(#paint22_linear_3006_689)" stroke-opacity="0.2" stroke-width="0.283193"/>
</g>
<g style="mix-blend-mode:overlay">
<rect x="-4.52344" y="214.554" width="94.5223" height="48.574" fill="#A2C6FF" fill-opacity="0.6"/>
</g>
<path opacity="0.3" d="M0.727539 221.298C0.727539 220.473 1.39573 219.805 2.22 219.805H38.6194C39.4436 219.805 40.1118 220.473 40.1118 221.298V263.128H0.727539V221.298Z" fill="#022455"/>
<path opacity="0.3" d="M44.0918 221.298C44.0918 220.473 44.76 219.805 45.5843 219.805H83.2964C84.1207 219.805 84.7889 220.473 84.7889 221.298V238.005C84.7889 238.829 84.1207 239.497 83.2964 239.497H45.5843C44.76 239.497 44.0918 238.829 44.0918 238.005V221.298Z" fill="#022455"/>
<path opacity="0.3" d="M44.0918 244.97C44.0918 244.145 44.76 243.477 45.5843 243.477H83.2964C84.1207 243.477 84.7889 244.145 84.7889 244.97V263.169H44.0918V244.97Z" fill="#022455"/>
<g style="mix-blend-mode:overlay">
<path fill-rule="evenodd" clip-rule="evenodd" d="M12.542 208.646C12.542 207.559 13.5233 206.677 14.7337 206.677H82.5548C83.7653 206.677 84.7465 207.559 84.7465 208.646C84.7465 209.734 83.7653 210.616 82.5548 210.616L14.7337 210.616C13.5233 210.616 12.542 209.734 12.542 208.646Z" fill="#A2C6FF" fill-opacity="0.6"/>
</g>
<path d="M0.727849 207.334C0.727849 207.693 0.431116 207.99 0.0714427 207.99C-0.288231 207.99 -0.584961 207.693 -0.584961 207.334C-0.584961 206.974 -0.288231 206.677 0.0714427 206.677C0.431116 206.677 0.727849 206.974 0.727849 207.334Z" fill="white"/>
<path d="M3.73957 207.334C3.73957 207.693 3.44284 207.99 3.08316 207.99C2.72349 207.99 2.42676 207.693 2.42676 207.334C2.42676 206.974 2.72349 206.677 3.08316 206.677C3.45183 206.677 3.73957 206.974 3.73957 207.334Z" fill="white"/>
<path d="M6.75226 207.334C6.75226 207.693 6.45553 207.99 6.09586 207.99C5.73619 207.99 5.43945 207.693 5.43945 207.334C5.43945 206.974 5.73619 206.677 6.09586 206.677C6.45553 206.677 6.75226 206.974 6.75226 207.334Z" fill="white"/>
</g>
</g>
<g opacity="0.5" clip-path="url(#clip11_3006_689)">
<g clip-path="url(#clip12_3006_689)">
<g filter="url(#filter6_bd_3006_689)">
<rect x="43.96" y="69.4077" width="94.5223" height="60.3893" rx="2.26554" fill="url(#paint23_linear_3006_689)"/>
<rect x="44.1016" y="69.5493" width="94.2391" height="60.1061" rx="2.12395" stroke="url(#paint24_linear_3006_689)" stroke-opacity="0.2" stroke-width="0.283193"/>
</g>
<g style="mix-blend-mode:overlay">
<rect x="43.96" y="81.2231" width="94.5223" height="48.574" fill="#A2C6FF" fill-opacity="0.6"/>
</g>
<path opacity="0.3" d="M49.2119 87.9666C49.2119 87.1423 49.8801 86.4741 50.7044 86.4741H87.1038C87.928 86.4741 88.5962 87.1423 88.5962 87.9666V129.797H49.2119V87.9666Z" fill="#022455"/>
<path opacity="0.3" d="M92.5762 87.9666C92.5762 87.1423 93.2444 86.4741 94.0686 86.4741H131.781C132.605 86.4741 133.273 87.1423 133.273 87.9666V104.674C133.273 105.498 132.605 106.166 131.781 106.166H94.0686C93.2444 106.166 92.5762 105.498 92.5762 104.674V87.9666Z" fill="#022455"/>
<path opacity="0.3" d="M92.5762 111.638C92.5762 110.814 93.2444 110.146 94.0686 110.146H131.781C132.605 110.146 133.273 110.814 133.273 111.638V129.838H92.5762V111.638Z" fill="#022455"/>
<g style="mix-blend-mode:overlay">
<path fill-rule="evenodd" clip-rule="evenodd" d="M61.0283 75.3154C61.0283 74.2278 62.0096 73.3462 63.2201 73.3462H131.041C132.252 73.3462 133.233 74.2278 133.233 75.3154C133.233 76.403 132.252 77.2846 131.041 77.2846L63.2201 77.2846C62.0096 77.2846 61.0283 76.403 61.0283 75.3154Z" fill="#A2C6FF" fill-opacity="0.6"/>
</g>
<path d="M49.2112 74.0026C49.2112 74.3623 48.9145 74.659 48.5548 74.659C48.1952 74.659 47.8984 74.3623 47.8984 74.0026C47.8984 73.6429 48.1952 73.3462 48.5548 73.3462C48.9145 73.3462 49.2112 73.6429 49.2112 74.0026Z" fill="white"/>
<path d="M52.223 74.0026C52.223 74.3623 51.9262 74.659 51.5666 74.659C51.2069 74.659 50.9102 74.3623 50.9102 74.0026C50.9102 73.6429 51.2069 73.3462 51.5666 73.3462C51.9352 73.3462 52.223 73.6429 52.223 74.0026Z" fill="white"/>
<path d="M55.2357 74.0026C55.2357 74.3623 54.9389 74.659 54.5793 74.659C54.2196 74.659 53.9229 74.3623 53.9229 74.0026C53.9229 73.6429 54.2196 73.3462 54.5793 73.3462C54.9389 73.3462 55.2357 73.6429 55.2357 74.0026Z" fill="white"/>
</g>
</g>
</g>
<defs>
<filter id="filter0_bd_3006_689" x="119.144" y="-11.1803" width="559.457" height="141.727" filterUnits="userSpaceOnUse" color-interpolation-filters="sRGB">
<feFlood flood-opacity="0" result="BackgroundImageFix"/>
<feGaussianBlur in="BackgroundImageFix" stdDeviation="26.4805"/>
<feComposite in2="SourceAlpha" operator="in" result="effect1_backgroundBlur_3006_689"/>
<feColorMatrix in="SourceAlpha" type="matrix" values="0 0 0 0 0 0 0 0 0 0 0 0 0 0 0 0 0 0 127 0" result="hardAlpha"/>
<feMorphology radius="1.90141" operator="erode" in="SourceAlpha" result="effect2_dropShadow_3006_689"/>
<feOffset dy="7.60563"/>
<feGaussianBlur stdDeviation="18.8453"/>
<feComposite in2="hardAlpha" operator="out"/>
<feColorMatrix type="matrix" values="0 0 0 0 0 0 0 0 0 0 0 0 0 0 0 0 0 0 0.2 0"/>
<feBlend mode="normal" in2="effect1_backgroundBlur_3006_689" result="effect2_dropShadow_3006_689"/>
<feBlend mode="normal" in="SourceGraphic" in2="effect2_dropShadow_3006_689" result="shape"/>
</filter>
<filter id="filter1_bd_3006_689" x="119.571" y="24.5546" width="559.39" height="166.328" filterUnits="userSpaceOnUse" color-interpolation-filters="sRGB">
<feFlood flood-opacity="0" result="BackgroundImageFix"/>
<feGaussianBlur in="BackgroundImageFix" stdDeviation="26.4805"/>
<feComposite in2="SourceAlpha" operator="in" result="effect1_backgroundBlur_3006_689"/>
<feColorMatrix in="SourceAlpha" type="matrix" values="0 0 0 0 0 0 0 0 0 0 0 0 0 0 0 0 0 0 127 0" result="hardAlpha"/>
<feMorphology radius="1.90141" operator="erode" in="SourceAlpha" result="effect2_dropShadow_3006_689"/>
<feOffset dy="7.60563"/>
<feGaussianBlur stdDeviation="18.8453"/>
<feComposite in2="hardAlpha" operator="out"/>
<feColorMatrix type="matrix" values="0 0 0 0 0 0 0 0 0 0 0 0 0 0 0 0 0 0 0.2 0"/>
<feBlend mode="normal" in2="effect1_backgroundBlur_3006_689" result="effect2_dropShadow_3006_689"/>
<feBlend mode="normal" in="SourceGraphic" in2="effect2_dropShadow_3006_689" result="shape"/>
</filter>
<filter id="filter2_d_3006_689" x="90.1113" y="122.147" width="325.381" height="238.147" filterUnits="userSpaceOnUse" color-interpolation-filters="sRGB">
<feFlood flood-opacity="0" result="BackgroundImageFix"/>
<feColorMatrix in="SourceAlpha" type="matrix" values="0 0 0 0 0 0 0 0 0 0 0 0 0 0 0 0 0 0 127 0" result="hardAlpha"/>
<feOffset dx="-10" dy="14"/>
<feGaussianBlur stdDeviation="26.5"/>
<feColorMatrix type="matrix" values="0 0 0 0 0 0 0 0 0 0.0898333 0 0 0 0 0.320833 0 0 0 0.08 0"/>
<feBlend mode="normal" in2="BackgroundImageFix" result="effect1_dropShadow_3006_689"/>
<feBlend mode="normal" in="SourceGraphic" in2="effect1_dropShadow_3006_689" result="shape"/>
</filter>
<filter id="filter3_bd_3006_689" x="677.767" y="170.991" width="120.554" height="86.4202" filterUnits="userSpaceOnUse" color-interpolation-filters="sRGB">
<feFlood flood-opacity="0" result="BackgroundImageFix"/>
<feGaussianBlur in="BackgroundImageFix" stdDeviation="6.50777"/>
<feComposite in2="SourceAlpha" operator="in" result="effect1_backgroundBlur_3006_689"/>
<feColorMatrix in="SourceAlpha" type="matrix" values="0 0 0 0 0 0 0 0 0 0 0 0 0 0 0 0 0 0 127 0" result="hardAlpha"/>
<feMorphology radius="0.467284" operator="erode" in="SourceAlpha" result="effect2_dropShadow_3006_689"/>
<feOffset dy="1.86913"/>
<feGaussianBlur stdDeviation="4.63136"/>
<feComposite in2="hardAlpha" operator="out"/>
<feColorMatrix type="matrix" values="0 0 0 0 0 0 0 0 0 0 0 0 0 0 0 0 0 0 0.2 0"/>
<feBlend mode="normal" in2="effect1_backgroundBlur_3006_689" result="effect2_dropShadow_3006_689"/>
<feBlend mode="normal" in="SourceGraphic" in2="effect2_dropShadow_3006_689" result="shape"/>
</filter>
<filter id="filter4_bd_3006_689" x="635.894" y="51.9845" width="120.554" height="86.4202" filterUnits="userSpaceOnUse" color-interpolation-filters="sRGB">
<feFlood flood-opacity="0" result="BackgroundImageFix"/>
<feGaussianBlur in="BackgroundImageFix" stdDeviation="6.50777"/>
<feComposite in2="SourceAlpha" operator="in" result="effect1_backgroundBlur_3006_689"/>
<feColorMatrix in="SourceAlpha" type="matrix" values="0 0 0 0 0 0 0 0 0 0 0 0 0 0 0 0 0 0 127 0" result="hardAlpha"/>
<feMorphology radius="0.467284" operator="erode" in="SourceAlpha" result="effect2_dropShadow_3006_689"/>
<feOffset dy="1.86913"/>
<feGaussianBlur stdDeviation="4.63136"/>
<feComposite in2="hardAlpha" operator="out"/>
<feColorMatrix type="matrix" values="0 0 0 0 0 0 0 0 0 0 0 0 0 0 0 0 0 0 0.2 0"/>
<feBlend mode="normal" in2="effect1_backgroundBlur_3006_689" result="effect2_dropShadow_3006_689"/>
<feBlend mode="normal" in="SourceGraphic" in2="effect2_dropShadow_3006_689" result="shape"/>
</filter>
<filter id="filter5_bd_3006_689" x="-17.539" y="189.723" width="120.554" height="86.4202" filterUnits="userSpaceOnUse" color-interpolation-filters="sRGB">
<feFlood flood-opacity="0" result="BackgroundImageFix"/>
<feGaussianBlur in="BackgroundImageFix" stdDeviation="6.50777"/>
<feComposite in2="SourceAlpha" operator="in" result="effect1_backgroundBlur_3006_689"/>
<feColorMatrix in="SourceAlpha" type="matrix" values="0 0 0 0 0 0 0 0 0 0 0 0 0 0 0 0 0 0 127 0" result="hardAlpha"/>
<feMorphology radius="0.467284" operator="erode" in="SourceAlpha" result="effect2_dropShadow_3006_689"/>
<feOffset dy="1.86913"/>
<feGaussianBlur stdDeviation="4.63136"/>
<feComposite in2="hardAlpha" operator="out"/>
<feColorMatrix type="matrix" values="0 0 0 0 0 0 0 0 0 0 0 0 0 0 0 0 0 0 0.2 0"/>
<feBlend mode="normal" in2="effect1_backgroundBlur_3006_689" result="effect2_dropShadow_3006_689"/>
<feBlend mode="normal" in="SourceGraphic" in2="effect2_dropShadow_3006_689" result="shape"/>
</filter>
<filter id="filter6_bd_3006_689" x="30.9444" y="56.3922" width="120.554" height="86.4202" filterUnits="userSpaceOnUse" color-interpolation-filters="sRGB">
<feFlood flood-opacity="0" result="BackgroundImageFix"/>
<feGaussianBlur in="BackgroundImageFix" stdDeviation="6.50777"/>
<feComposite in2="SourceAlpha" operator="in" result="effect1_backgroundBlur_3006_689"/>
<feColorMatrix in="SourceAlpha" type="matrix" values="0 0 0 0 0 0 0 0 0 0 0 0 0 0 0 0 0 0 127 0" result="hardAlpha"/>
<feMorphology radius="0.467284" operator="erode" in="SourceAlpha" result="effect2_dropShadow_3006_689"/>
<feOffset dy="1.86913"/>
<feGaussianBlur stdDeviation="4.63136"/>
<feComposite in2="hardAlpha" operator="out"/>
<feColorMatrix type="matrix" values="0 0 0 0 0 0 0 0 0 0 0 0 0 0 0 0 0 0 0.2 0"/>
<feBlend mode="normal" in2="effect1_backgroundBlur_3006_689" result="effect2_dropShadow_3006_689"/>
<feBlend mode="normal" in="SourceGraphic" in2="effect2_dropShadow_3006_689" result="shape"/>
</filter>
<radialGradient id="paint0_radial_3006_689" cx="0" cy="0" r="1" gradientUnits="userSpaceOnUse" gradientTransform="translate(1.41713e-05 418.687) rotate(-57.2949) scale(531.782 588.419)">
<stop stop-color="#0941AB"/>
<stop offset="1" stop-color="#091B36" stop-opacity="0"/>
</radialGradient>
<radialGradient id="paint1_radial_3006_689" cx="0" cy="0" r="1" gradientUnits="userSpaceOnUse" gradientTransform="translate(796.78 -9.72212) rotate(139.994) scale(490.426 444.702)">
<stop stop-color="#0941AB"/>
<stop offset="1" stop-color="#091B36" stop-opacity="0"/>
</radialGradient>
<radialGradient id="paint2_radial_3006_689" cx="0" cy="0" r="1" gradientUnits="userSpaceOnUse" gradientTransform="translate(407.481 400) rotate(-90.1411) scale(400.001 528.853)">
<stop stop-color="#0941AB"/>
<stop offset="1" stop-color="#091B36" stop-opacity="0"/>
</radialGradient>
<linearGradient id="paint3_linear_3006_689" x1="678.416" y1="398.654" x2="197.91" y2="77.4952" gradientUnits="userSpaceOnUse">
<stop offset="0.28" stop-color="#092349"/>
<stop offset="1" stop-color="#003C97"/>
</linearGradient>
<linearGradient id="paint4_linear_3006_689" x1="237.738" y1="40.2417" x2="253.865" y2="137.263" gradientUnits="userSpaceOnUse">
<stop offset="0.28" stop-color="#092349"/>
<stop offset="1" stop-color="#003C97"/>
</linearGradient>
<linearGradient id="paint5_linear_3006_689" x1="678.813" y1="147.354" x2="612.567" y2="-56.7459" gradientUnits="userSpaceOnUse">
<stop offset="0.28" stop-color="#092349"/>
<stop offset="1" stop-color="#003C97"/>
</linearGradient>
<linearGradient id="paint6_linear_3006_689" x1="632.471" y1="344.221" x2="389.476" y2="195.246" gradientUnits="userSpaceOnUse">
<stop offset="0.28" stop-color="#092349"/>
<stop offset="1" stop-color="#003C97"/>
</linearGradient>
<linearGradient id="paint7_linear_3006_689" x1="398.043" y1="313.928" x2="168.39" y2="157.459" gradientUnits="userSpaceOnUse">
<stop offset="0.28" stop-color="#092349"/>
<stop offset="1" stop-color="#003C97"/>
</linearGradient>
<linearGradient id="paint8_linear_3006_689" x1="358.962" y1="207.116" x2="327.011" y2="159.909" gradientUnits="userSpaceOnUse">
<stop offset="0.28" stop-color="#092349"/>
<stop offset="1" stop-color="#003C97"/>
</linearGradient>
<linearGradient id="paint9_linear_3006_689" x1="358.962" y1="230.154" x2="327.011" y2="182.947" gradientUnits="userSpaceOnUse">
<stop offset="0.28" stop-color="#092349"/>
<stop offset="1" stop-color="#003C97"/>
</linearGradient>
<linearGradient id="paint10_linear_3006_689" x1="358.962" y1="252.269" x2="327.011" y2="205.063" gradientUnits="userSpaceOnUse">
<stop offset="0.28" stop-color="#092349"/>
<stop offset="1" stop-color="#003C97"/>
</linearGradient>
<linearGradient id="paint11_linear_3006_689" x1="358.962" y1="275.308" x2="327.011" y2="228.101" gradientUnits="userSpaceOnUse">
<stop offset="0.28" stop-color="#092349"/>
<stop offset="1" stop-color="#003C97"/>
</linearGradient>
<linearGradient id="paint12_linear_3006_689" x1="328.269" y1="396.086" x2="235.13" y2="357.861" gradientUnits="userSpaceOnUse">
<stop offset="0.28" stop-color="#092349"/>
<stop offset="1" stop-color="#003C97"/>
</linearGradient>
<linearGradient id="paint13_linear_3006_689" x1="704.461" y1="181.411" x2="784.974" y2="241.265" gradientUnits="userSpaceOnUse">
<stop offset="0.28" stop-color="#092349"/>
<stop offset="1" stop-color="#003C97"/>
</linearGradient>
<linearGradient id="paint14_linear_3006_689" x1="703.631" y1="185.214" x2="772.527" y2="242.899" gradientUnits="userSpaceOnUse">
<stop stop-color="white" stop-opacity="0"/>
<stop offset="1" stop-color="#BBB7FF"/>
</linearGradient>
<linearGradient id="paint15_linear_3006_689" x1="662.588" y1="62.4042" x2="743.101" y2="122.259" gradientUnits="userSpaceOnUse">
<stop offset="0.28" stop-color="#092349"/>
<stop offset="1" stop-color="#003C97"/>
</linearGradient>
<linearGradient id="paint16_linear_3006_689" x1="661.758" y1="66.2078" x2="730.654" y2="123.893" gradientUnits="userSpaceOnUse">
<stop stop-color="white" stop-opacity="0"/>
<stop offset="1" stop-color="#BBB7FF"/>
</linearGradient>
<linearGradient id="paint17_linear_3006_689" x1="525.857" y1="138.453" x2="251.698" y2="133.199" gradientUnits="userSpaceOnUse">
<stop stop-color="#15C1E6"/>
<stop offset="0.0923253" stop-color="#091B36" stop-opacity="0"/>
<stop offset="0.909898" stop-color="#091B36" stop-opacity="0"/>
<stop offset="1" stop-color="#15C1E6"/>
</linearGradient>
<linearGradient id="paint18_linear_3006_689" x1="113.426" y1="0.88663" x2="117.616" y2="232.021" gradientUnits="userSpaceOnUse">
<stop stop-color="#15C1E6"/>
<stop offset="0.143865" stop-color="#091B36" stop-opacity="0"/>
<stop offset="0.876247" stop-color="#091B36" stop-opacity="0"/>
<stop offset="1" stop-color="#15C1E6"/>
</linearGradient>
<linearGradient id="paint19_linear_3006_689" x1="88.1414" y1="-2.63815" x2="93.6089" y2="187.492" gradientUnits="userSpaceOnUse">
<stop stop-color="#15C1E6"/>
<stop offset="0.382702" stop-color="#091B36" stop-opacity="0"/>
<stop offset="0.641409" stop-color="#091B36" stop-opacity="0"/>
<stop offset="1" stop-color="#15C1E6"/>
</linearGradient>
<linearGradient id="paint20_linear_3006_689" x1="329.867" y1="136.506" x2="446.434" y2="136.506" gradientUnits="userSpaceOnUse">
<stop stop-color="#3D7FFC"/>
<stop offset="1" stop-color="#15C1E6"/>
</linearGradient>
<linearGradient id="paint21_linear_3006_689" x1="9.15522" y1="200.143" x2="89.6684" y2="259.997" gradientUnits="userSpaceOnUse">
<stop offset="0.28" stop-color="#092349"/>
<stop offset="1" stop-color="#003C97"/>
</linearGradient>
<linearGradient id="paint22_linear_3006_689" x1="8.32569" y1="203.947" x2="77.221" y2="261.632" gradientUnits="userSpaceOnUse">
<stop stop-color="white" stop-opacity="0"/>
<stop offset="1" stop-color="#BBB7FF"/>
</linearGradient>
<linearGradient id="paint23_linear_3006_689" x1="57.6386" y1="66.8119" x2="138.152" y2="126.666" gradientUnits="userSpaceOnUse">
<stop offset="0.28" stop-color="#092349"/>
<stop offset="1" stop-color="#003C97"/>
</linearGradient>
<linearGradient id="paint24_linear_3006_689" x1="56.8091" y1="70.6155" x2="125.704" y2="128.301" gradientUnits="userSpaceOnUse">
<stop stop-color="white" stop-opacity="0"/>
<stop offset="1" stop-color="#BBB7FF"/>
</linearGradient>
<clipPath id="clip0_3006_689">
<rect width="780" height="400" fill="white"/>
</clipPath>
<clipPath id="clip1_3006_689">
<rect width="79.9393" height="79.9393" fill="white" transform="translate(180.026 188.579)"/>
</clipPath>
<clipPath id="clip2_3006_689">
<rect width="53.5256" height="53.5256" fill="white" transform="translate(258.237 323.237)"/>
</clipPath>
<clipPath id="clip3_3006_689">
<rect width="94.5223" height="60.3893" fill="white" transform="translate(690.782 184.006)"/>
</clipPath>
<clipPath id="clip4_3006_689">
<rect x="690.781" y="184.006" width="94.5223" height="60.3893" rx="2.26554" fill="white"/>
</clipPath>
<clipPath id="clip5_3006_689">
<rect width="94.5223" height="60.3893" fill="white" transform="translate(648.909 65)"/>
</clipPath>
<clipPath id="clip6_3006_689">
<rect x="648.909" y="65" width="94.5223" height="60.3893" rx="2.26554" fill="white"/>
</clipPath>
<clipPath id="clip7_3006_689">
<rect width="281.241" height="221.107" fill="white" transform="translate(248.456 25)"/>
</clipPath>
<clipPath id="clip8_3006_689">
<rect width="49" height="61" fill="white" transform="translate(363 105)"/>
</clipPath>
<clipPath id="clip9_3006_689">
<rect width="94.5223" height="60.3893" fill="white" transform="translate(-4.52344 202.739)"/>
</clipPath>
<clipPath id="clip10_3006_689">
<rect x="-4.52344" y="202.739" width="94.5223" height="60.3893" rx="2.26554" fill="white"/>
</clipPath>
<clipPath id="clip11_3006_689">
<rect width="94.5223" height="60.3893" fill="white" transform="translate(43.96 69.4077)"/>
</clipPath>
<clipPath id="clip12_3006_689">
<rect x="43.96" y="69.4077" width="94.5223" height="60.3893" rx="2.26554" fill="white"/>
</clipPath>
</defs>
</svg>
